<svg width="201" height="62" viewBox="0 0 201 62" fill="none"
  xmlns="http://www.w3.org/2000/svg">
  <path d="M74.016 8.96V13.16H79.656V15.824H74.016V20.264H80.376V23H70.656V6.224H80.376V8.96H74.016ZM90.7734 23L88.0374 18.872L85.6134 23H82.0134L86.3574 16.328L81.9654 9.704H85.7574L88.4694 13.808L90.9174 9.704H94.5174L90.1494 16.328L94.5654 23H90.7734ZM99.7504 11.624C100.182 11.016 100.774 10.512 101.526 10.112C102.294 9.696 103.166 9.488 104.142 9.488C105.278 9.488 106.302 9.768 107.214 10.328C108.142 10.888 108.87 11.688 109.398 12.728C109.942 13.752 110.214 14.944 110.214 16.304C110.214 17.664 109.942 18.872 109.398 19.928C108.87 20.968 108.142 21.776 107.214 22.352C106.302 22.928 105.278 23.216 104.142 23.216C103.166 23.216 102.302 23.016 101.55 22.616C100.814 22.216 100.214 21.712 99.7504 21.104V29.336H96.3904V9.704H99.7504V11.624ZM106.782 16.304C106.782 15.504 106.614 14.816 106.278 14.24C105.958 13.648 105.526 13.2 104.982 12.896C104.454 12.592 103.878 12.44 103.254 12.44C102.646 12.44 102.07 12.6 101.526 12.92C100.998 13.224 100.566 13.672 100.23 14.264C99.9104 14.856 99.7504 15.552 99.7504 16.352C99.7504 17.152 99.9104 17.848 100.23 18.44C100.566 19.032 100.998 19.488 101.526 19.808C102.07 20.112 102.646 20.264 103.254 20.264C103.878 20.264 104.454 20.104 104.982 19.784C105.526 19.464 105.958 19.008 106.278 18.416C106.614 17.824 106.782 17.12 106.782 16.304ZM116.016 5.24V23H112.656V5.24H116.016ZM125.24 23.216C123.96 23.216 122.808 22.936 121.784 22.376C120.76 21.8 119.952 20.992 119.36 19.952C118.784 18.912 118.496 17.712 118.496 16.352C118.496 14.992 118.792 13.792 119.384 12.752C119.992 11.712 120.816 10.912 121.856 10.352C122.896 9.776 124.056 9.488 125.336 9.488C126.616 9.488 127.776 9.776 128.816 10.352C129.856 10.912 130.672 11.712 131.264 12.752C131.872 13.792 132.176 14.992 132.176 16.352C132.176 17.712 131.864 18.912 131.24 19.952C130.632 20.992 129.8 21.8 128.744 22.376C127.704 22.936 126.536 23.216 125.24 23.216ZM125.24 20.288C125.848 20.288 126.416 20.144 126.944 19.856C127.488 19.552 127.92 19.104 128.24 18.512C128.56 17.92 128.72 17.2 128.72 16.352C128.72 15.088 128.384 14.12 127.712 13.448C127.056 12.76 126.248 12.416 125.288 12.416C124.328 12.416 123.52 12.76 122.864 13.448C122.224 14.12 121.904 15.088 121.904 16.352C121.904 17.616 122.216 18.592 122.84 19.28C123.48 19.952 124.28 20.288 125.24 20.288ZM138 11.768C138.432 11.064 138.992 10.512 139.68 10.112C140.384 9.712 141.184 9.512 142.08 9.512V13.04H141.192C140.136 13.04 139.336 13.288 138.792 13.784C138.264 14.28 138 15.144 138 16.376V23H134.64V9.704H138V11.768ZM146.048 8.12C145.456 8.12 144.96 7.936 144.56 7.568C144.176 7.184 143.984 6.712 143.984 6.152C143.984 5.592 144.176 5.128 144.56 4.76C144.96 4.376 145.456 4.184 146.048 4.184C146.64 4.184 147.128 4.376 147.512 4.76C147.912 5.128 148.112 5.592 148.112 6.152C148.112 6.712 147.912 7.184 147.512 7.568C147.128 7.936 146.64 8.12 146.048 8.12ZM147.704 9.704V23H144.344V9.704H147.704ZM158.391 9.512C159.975 9.512 161.255 10.016 162.231 11.024C163.207 12.016 163.695 13.408 163.695 15.2V23H160.335V15.656C160.335 14.6 160.071 13.792 159.543 13.232C159.015 12.656 158.295 12.368 157.383 12.368C156.455 12.368 155.719 12.656 155.175 13.232C154.647 13.792 154.383 14.6 154.383 15.656V23H151.023V9.704H154.383V11.36C154.831 10.784 155.399 10.336 156.087 10.016C156.791 9.68 157.559 9.512 158.391 9.512ZM80.928 49.808H74.256L73.152 53H69.624L75.648 36.224H79.56L85.584 53H82.032L80.928 49.808ZM80.016 47.12L77.592 40.112L75.168 47.12H80.016ZM86.9717 46.352C86.9717 44.976 87.2517 43.776 87.8117 42.752C88.3717 41.712 89.1477 40.912 90.1397 40.352C91.1317 39.776 92.2677 39.488 93.5477 39.488C95.1957 39.488 96.5557 39.904 97.6277 40.736C98.7157 41.552 99.4437 42.704 99.8117 44.192H96.1877C95.9957 43.616 95.6677 43.168 95.2037 42.848C94.7557 42.512 94.1957 42.344 93.5237 42.344C92.5637 42.344 91.8037 42.696 91.2437 43.4C90.6837 44.088 90.4037 45.072 90.4037 46.352C90.4037 47.616 90.6837 48.6 91.2437 49.304C91.8037 49.992 92.5637 50.336 93.5237 50.336C94.8837 50.336 95.7717 49.728 96.1877 48.512H99.8117C99.4437 49.952 98.7157 51.096 97.6277 51.944C96.5397 52.792 95.1797 53.216 93.5477 53.216C92.2677 53.216 91.1317 52.936 90.1397 52.376C89.1477 51.8 88.3717 51 87.8117 49.976C87.2517 48.936 86.9717 47.728 86.9717 46.352ZM101.409 46.304C101.409 44.96 101.673 43.768 102.201 42.728C102.745 41.688 103.473 40.888 104.385 40.328C105.313 39.768 106.345 39.488 107.481 39.488C108.473 39.488 109.337 39.688 110.073 40.088C110.825 40.488 111.425 40.992 111.873 41.6V39.704H115.257V53H111.873V51.056C111.441 51.68 110.841 52.2 110.073 52.616C109.321 53.016 108.449 53.216 107.457 53.216C106.337 53.216 105.313 52.928 104.385 52.352C103.473 51.776 102.745 50.968 102.201 49.928C101.673 48.872 101.409 47.664 101.409 46.304ZM111.873 46.352C111.873 45.536 111.713 44.84 111.393 44.264C111.073 43.672 110.641 43.224 110.097 42.92C109.553 42.6 108.969 42.44 108.345 42.44C107.721 42.44 107.145 42.592 106.617 42.896C106.089 43.2 105.657 43.648 105.321 44.24C105.001 44.816 104.841 45.504 104.841 46.304C104.841 47.104 105.001 47.808 105.321 48.416C105.657 49.008 106.089 49.464 106.617 49.784C107.161 50.104 107.737 50.264 108.345 50.264C108.969 50.264 109.553 50.112 110.097 49.808C110.641 49.488 111.073 49.04 111.393 48.464C111.713 47.872 111.873 47.168 111.873 46.352ZM117.675 46.304C117.675 44.96 117.939 43.768 118.467 42.728C119.011 41.688 119.747 40.888 120.675 40.328C121.603 39.768 122.635 39.488 123.771 39.488C124.635 39.488 125.459 39.68 126.243 40.064C127.027 40.432 127.651 40.928 128.115 41.552V35.24H131.523V53H128.115V51.032C127.699 51.688 127.115 52.216 126.363 52.616C125.611 53.016 124.739 53.216 123.747 53.216C122.627 53.216 121.603 52.928 120.675 52.352C119.747 51.776 119.011 50.968 118.467 49.928C117.939 48.872 117.675 47.664 117.675 46.304ZM128.139 46.352C128.139 45.536 127.979 44.84 127.659 44.264C127.339 43.672 126.907 43.224 126.363 42.92C125.819 42.6 125.235 42.44 124.611 42.44C123.987 42.44 123.411 42.592 122.883 42.896C122.355 43.2 121.923 43.648 121.587 44.24C121.267 44.816 121.107 45.504 121.107 46.304C121.107 47.104 121.267 47.808 121.587 48.416C121.923 49.008 122.355 49.464 122.883 49.784C123.427 50.104 124.003 50.264 124.611 50.264C125.235 50.264 125.819 50.112 126.363 49.808C126.907 49.488 127.339 49.04 127.659 48.464C127.979 47.872 128.139 47.168 128.139 46.352ZM147.164 46.064C147.164 46.544 147.132 46.976 147.068 47.36H137.348C137.428 48.32 137.764 49.072 138.356 49.616C138.948 50.16 139.676 50.432 140.54 50.432C141.788 50.432 142.676 49.896 143.204 48.824H146.828C146.444 50.104 145.708 51.16 144.62 51.992C143.532 52.808 142.196 53.216 140.612 53.216C139.332 53.216 138.18 52.936 137.156 52.376C136.148 51.8 135.356 50.992 134.78 49.952C134.22 48.912 133.94 47.712 133.94 46.352C133.94 44.976 134.22 43.768 134.78 42.728C135.34 41.688 136.124 40.888 137.132 40.328C138.14 39.768 139.3 39.488 140.612 39.488C141.876 39.488 143.004 39.76 143.996 40.304C145.004 40.848 145.78 41.624 146.324 42.632C146.884 43.624 147.164 44.768 147.164 46.064ZM143.684 45.104C143.668 44.24 143.356 43.552 142.748 43.04C142.14 42.512 141.396 42.248 140.516 42.248C139.684 42.248 138.98 42.504 138.404 43.016C137.844 43.512 137.5 44.208 137.372 45.104H143.684ZM166.129 39.512C167.761 39.512 169.073 40.016 170.065 41.024C171.073 42.016 171.577 43.408 171.577 45.2V53H168.217V45.656C168.217 44.616 167.953 43.824 167.425 43.28C166.897 42.72 166.177 42.44 165.265 42.44C164.353 42.44 163.625 42.72 163.081 43.28C162.553 43.824 162.289 44.616 162.289 45.656V53H158.929V45.656C158.929 44.616 158.665 43.824 158.137 43.28C157.609 42.72 156.889 42.44 155.977 42.44C155.049 42.44 154.313 42.72 153.769 43.28C153.241 43.824 152.977 44.616 152.977 45.656V53H149.617V39.704H152.977V41.312C153.409 40.752 153.961 40.312 154.633 39.992C155.321 39.672 156.073 39.512 156.889 39.512C157.929 39.512 158.857 39.736 159.673 40.184C160.489 40.616 161.121 41.24 161.569 42.056C162.001 41.288 162.625 40.672 163.441 40.208C164.273 39.744 165.169 39.512 166.129 39.512ZM187.485 39.704L179.253 59.288H175.677L178.557 52.664L173.229 39.704H176.997L180.429 48.992L183.909 39.704H187.485Z" fill="white"/>
  <path d="M64 30.8995L51.838 35.5344C50.243 42.1005 45.2586 47.3148 38.8785 49.4392L38.4797 45.7699C42.4673 44.2249 45.8567 40.9418 47.4517 37.0794C48.2492 35.1482 48.648 33.0238 48.648 30.8995C48.648 28.7751 48.2492 26.6508 47.4517 24.7196C45.8567 20.8572 42.4673 17.5741 38.4797 16.0291C37.4829 15.6429 36.6853 15.4497 35.6885 15.2566C34.4922 15.0635 33.296 14.8704 32.0997 14.8704C30.9034 14.8704 29.7072 15.0635 28.5109 15.2566C27.514 15.4497 26.7165 15.6429 25.7196 16.0291C21.7321 17.5741 18.3427 20.8572 16.7477 24.7196C15.9501 26.6508 15.5514 28.7751 15.5514 30.8995C15.5514 33.0238 15.9501 35.1482 16.7477 37.0794C18.3427 40.9418 21.5327 44.0318 25.5202 45.7699L25.1215 49.4392C18.7414 47.1217 13.9564 42.1005 12.3614 35.5344L0 30.8995L12.3614 26.2646C14.1558 19.1191 19.9377 13.5185 27.3146 11.7804L29.109 7.33863L32.0997 0L34.891 6.75926L36.8847 11.5873C44.2617 13.3254 50.243 18.9259 51.838 26.0714L64 30.8995Z" fill="#FF5D17"/>
  <path d="M51.2466 12.5508L45.6641 15.0614L48.6547 17.9582L51.2466 12.5508Z" fill="#FFA114"/>
  <path d="M51.2466 49.2472L48.6547 43.8398L45.6641 46.9298L51.2466 49.2472Z" fill="#FFA114"/>
  <path d="M13.1719 49.4404L18.7544 46.9298L15.7638 43.8398L13.1719 49.4404Z" fill="#FFA114"/>
  <path d="M13.1719 12.5508L15.7638 17.9582L18.7544 14.8682L13.1719 12.5508Z" fill="#FFA114"/>
  <path d="M38.0954 55.8204L32.1141 62.0003L26.1328 55.8204L27.1297 44.2331L29.3228 21.2516L26.1328 17.3892C27.3291 16.8098 28.5253 16.6167 29.921 16.4236C30.7185 16.2305 31.3166 16.2305 32.1141 16.2305C32.9116 16.2305 33.5098 16.2305 34.3073 16.4236C35.7029 16.6167 36.8992 17.003 38.0954 17.3892L34.9054 21.2516L37.0985 44.2331L38.0954 55.8204Z" fill="#FFA114"/>
</svg>
